<svg xmlns="http://www.w3.org/2000/svg" width="475" height="576" fill="none" xmlns:v="https://vecta.io/nano"><g clip-path="url(#A)"><g fill="#002a3a"><path d="M295.275 380.231c-3.183 0-6.269 2.573-6.912 5.757l-5.369 26.629-12.957-29.652c-.707-1.704-2.347-2.734-4.341-2.734h-15.143c1.158 1.03 1.061 3.056.965 3.988l-9.742 48.273s-.675 3.12-2.668 4.438h11.477c3.183 0 6.27-2.573 6.913-5.757l5.369-26.628 12.957 29.651c.707 1.705 2.347 2.734 4.34 2.734h15.144c-1.158-1.029-1.061-3.055-.965-3.988l9.742-48.272s.675-3.12 2.668-4.439h-11.478zm-189.176 67.955c-3.119 0-6.141 2.541-6.784 5.628l-9.163 45.861c-.225.804-.932 2.959-2.54 4.02h18.519c-1.126-.997-1.029-2.991-.933-3.891l9.549-47.308s.643-3.056 2.637-4.342h-11.253l-.032.032zm242.354 0c-3.118 0-6.141 2.541-6.784 5.628l-9.163 45.861c-.225.804-.932 2.959-2.54 4.02h18.519c-1.125-.997-1.028-2.991-.932-3.891l9.549-47.308s.643-3.056 2.636-4.342h-11.253l-.032.032zm-125.099-47.179c-1.608 8.072-13.054 9.166-17.201 9.423l8.584 23.413c.74 1.929 3.151 3.087 5.401 3.087h16.301s-2.733-1.865-5.208-7.204c-1.415-3.023-5.305-13.314-5.305-13.314s13.985-7.815 13.985-21.065c0-11.031-8.327-15.116-20.062-15.116h-28.582c1.479 1.319.9 4.374.9 4.439l-9.645 47.822s-.676 3.12-2.669 4.438h19.291c-1.511-1.318-.9-4.438-.9-4.438l7.812-38.657h9.742c7.041 0 8.488 2.991 7.62 7.172m92.048 67.504c-1.543 7.912-12.764 8.973-16.815 9.231l8.392 22.866c.739 1.865 3.086 3.023 5.273 3.023h15.946s-2.668-1.801-5.112-7.044c-1.382-2.958-5.176-13.024-5.176-13.024s13.664-7.655 13.664-20.615c0-10.774-8.134-14.794-19.612-14.794h-27.971c1.447 1.286.9 4.277.868 4.342l-9.42 46.761s-.643 3.055-2.637 4.341h18.841c-1.479-1.318-.868-4.341-.868-4.341l7.619-37.789h9.517c6.88 0 8.295 2.927 7.459 7.011m143.362.032c-1.543 7.912-12.764 8.973-16.815 9.231l8.391 22.866c.74 1.865 3.087 3.023 5.273 3.023h15.947s-2.669-1.801-5.112-7.044c-1.383-2.958-5.176-13.024-5.176-13.024s13.664-7.655 13.664-20.615c0-10.774-8.134-14.794-19.612-14.794h-27.972c1.447 1.286.9 4.277.868 4.342l-9.42 46.761s-.643 3.055-2.636 4.341h18.84c-1.479-1.318-.868-4.341-.868-4.341l7.62-37.789h9.517c6.88 0 8.295 2.927 7.459 7.011"/><path d="M359.835 380.231h-47.069c1.479 1.319.932 4.374.9 4.439l-9.035 44.799-.321 1.704c-.643 3.184 1.447 5.757 4.63 5.757h34.144c3.183 0 6.27-2.573 6.913-5.757l1.511-7.589h-29.933l1.833-9.005h20.962c3.183 0 6.27-2.573 6.913-5.757l1.318-6.625h-26.718l1.736-8.587h23.792c3.183 0 6.27-2.573 6.913-5.757l1.511-7.589v-.033zm-214.994 57.825c-16.494 0-25.143-10.645-25.143-23.831 0-17.109 16.333-35.119 37.199-35.119 16.172 0 25.142 10.645 25.142 24.249 0 17.945-17.651 34.701-37.198 34.701zm2.99-14.183c9.227 0 17.876-8.297 17.876-18.524 0-8.04-5.466-12.093-11.864-12.093-9.549 0-17.812 8.684-17.812 18.3 0 6.657 4.083 12.317 11.8 12.317zm233.867 80.883c-16.14 0-24.564-10.42-24.564-23.316 0-16.723 15.979-34.347 36.363-34.347 15.818 0 24.563 10.388 24.563 23.702 0 17.527-17.265 33.929-36.362 33.929m2.925-13.861c9.035 0 17.491-8.104 17.491-18.106 0-7.847-5.37-11.803-11.607-11.803-9.356 0-17.394 8.49-17.394 17.881 0 6.529 3.987 12.028 11.51 12.028zM128.186 380.264H84.622c-3.183 0-6.269 2.573-6.912 5.756l-1.608 7.59h16.879l-8.07 39.172c-.225.804-.932 3.023-2.604 4.116h19.162c-1.511-1.319-.9-4.438-.9-4.438l7.973-38.85h11.156c3.183 0 6.27-2.573 6.913-5.756l1.543-7.59h.032zm101.791 67.922H187.28c-3.119 0-6.141 2.541-6.784 5.628l-1.575 7.462h16.525l-7.909 38.431c-.225.804-.932 2.959-2.54 4.02h18.777c-1.479-1.318-.869-4.341-.869-4.341l7.813-38.11h10.932c3.118 0 6.14-2.541 6.783-5.629l1.511-7.461h.033z"/><path d="M382.341 438.12c-16.494 0-25.143-10.645-25.143-23.831 0-17.109 16.333-35.119 37.199-35.119 16.172 0 25.142 10.645 25.142 24.249 0 17.946-17.651 34.701-37.198 34.701zm2.99-14.183c9.227 0 17.876-8.297 17.876-18.524 0-8.04-5.466-12.092-11.864-12.092-9.549 0-17.812 8.683-17.812 18.299 0 6.657 4.083 12.317 11.8 12.317zM81.149 483.981H72.34l4.276-21.29s.354-1.705 1.479-2.445H67.582c.836.74.482 2.445.482 2.445l-5.273 26.178s-.354 1.705-1.447 2.444H79.51c1.833 0 3.44-1.318 3.858-3.119l1.061-5.275s-.868 1.094-3.247 1.094m87.193-35.827c-3.118 0-6.141 2.541-6.784 5.628l-5.272 26.082-12.7-29.04c-.675-1.673-2.315-2.67-4.276-2.67h-14.822c1.125.997 1.029 2.991.933 3.892l-9.549 47.308s-.643 3.055-2.637 4.341h11.253c3.119 0 6.141-2.54 6.784-5.628l5.273-26.082 12.699 29.041c.708 1.672 2.315 2.669 4.277 2.669h14.821c-1.125-.997-1.029-2.991-.932-3.891l9.549-47.308s.643-3.055 2.636-4.342h-11.253zm-104.973 12.06H37.617c.804.708.514 2.38.482 2.445l-4.951 24.538-.193.932c-.354 1.737.772 3.152 2.54 3.152h18.712c1.736 0 3.44-1.415 3.794-3.152l.836-4.148H42.439l.997-4.921h11.478c1.736 0 3.44-1.415 3.794-3.151l.739-3.635H44.819l.964-4.695h13.021c1.736 0 3.44-1.415 3.794-3.152l.836-4.148-.032-.065zm215.38-12.06h-46.105c1.447 1.287.901 4.278.901 4.342l-8.874 43.867-.322 1.672c-.611 3.119 1.415 5.628 4.534 5.628h33.437c3.118 0 6.141-2.541 6.752-5.66l1.478-7.461h-29.321l1.768-8.812h20.545c3.118 0 6.14-2.541 6.751-5.628l1.318-6.497h-26.138l1.704-8.426h23.309c3.119 0 6.141-2.54 6.752-5.628l1.479-7.461.032.064zm-261.131 12.06H4.694c.772.676.514 2.252.514 2.412L.064 488.161c-.322 1.641.9 3.152 2.572 3.152h8.584c11.349 0 21.22-7.622 21.22-19.199 0-8.105-6.591-11.836-14.789-11.836m-4.565 23.413H9.581l3.183-15.79h3.504c3.826 0 7.202 1.8 7.202 6.078 0 4.953-3.665 9.712-10.417 9.712"/></g><path d="M420.504 62.423a18.65 18.65 0 0 0-6.366-12.06c-3.022-3.441-7.234-5.821-12.057-6.368-6.012-.675-13.728-1.254-22.698-1.415-.161-8.973-.74-16.691-1.415-22.705a18.65 18.65 0 0 0-6.366-12.06c-3.022-3.441-7.234-5.821-12.057-6.368-34.53-3.827-124.36-5.371-196.218 66.508S93.013 229.689 96.839 264.229c.547 4.824 2.894 9.069 6.366 12.06 3.022 3.442 7.234 5.821 12.057 6.368 6.012.675 13.728 1.254 22.698 1.415.161 8.973.74 16.691 1.415 22.705.546 4.824 2.894 9.07 6.366 12.06 3.022 3.442 7.234 5.821 12.056 6.368 34.531 3.827 124.361 5.371 196.218-66.507S424.33 96.963 420.504 62.423zM187.055 91.689c57.165-57.149 125.646-67.89 168.664-67.955 0 6.046-.225 12.607-.771 19.586-42.504 3.248-99.99 18.074-149.085 67.183S141.947 217.114 138.7 259.63c-6.945.547-13.536.772-19.58.772.064-43.03 10.802-111.532 67.935-168.681v-.032zm164.324-21.065c-7.041 38.014-24.37 82.588-63.595 121.823s-83.785 56.57-121.788 63.614c7.041-38.014 24.371-82.588 63.595-121.824s83.786-56.57 121.788-63.613zM330.32 234.996c-57.132 57.148-125.614 67.89-168.632 67.954 0-6.046.225-12.607.771-19.585 42.504-3.249 99.99-18.074 149.085-67.183S375.46 109.57 378.707 67.054c6.945-.515 13.536-.772 19.58-.772-.064 43.031-10.802 111.532-67.935 168.681l-.032.033z" fill="#6dacde"/><path d="M351.379 70.592c-38.002 7.043-82.564 24.377-121.788 63.613s-56.554 83.81-63.595 121.823c38.003-7.043 82.564-24.377 121.788-63.613s56.554-83.81 63.595-121.823z" fill="#c7911b"/><g fill="#002a3a"><path d="M156.962 539.811v-.45s0-1.029.61-1.48h-.9-1.157c-1.029 0-1.833.837-1.833 1.834v11.384l-9.677-12.51c-.354-.45-.901-.708-1.447-.708h-1.897-.9c.611.451.611 1.48.611 1.48v.45 15.212.45s0 1.029-.611 1.479h2.057c1.029 0 1.833-.836 1.833-1.833v-11.77l9.999 12.896c.354.45.868.707 1.447.707h2.508c-.611-.45-.611-1.479-.611-1.479v-.45-15.212h-.032zm-49.063-2.251c-5.884 0-10.031 4.502-10.031 9.905s4.083 9.873 9.967 9.873 10.031-4.502 10.031-9.905-4.083-9.873-9.967-9.873zm0 16.691c-3.794 0-6.495-3.087-6.495-6.818s2.637-6.786 6.431-6.786 6.494 3.088 6.494 6.818-2.636 6.786-6.43 6.786zm79.606-16.691c-5.884 0-10.031 4.502-10.031 9.905s4.083 9.873 9.967 9.873 10.031-4.502 10.031-9.905-4.083-9.873-9.967-9.873zm0 16.691c-3.794 0-6.494-3.087-6.494-6.818s2.636-6.786 6.43-6.786 6.494 3.088 6.494 6.818-2.636 6.786-6.43 6.786zm-51.667 1.254l-4.083-5.724c2.669-.74 4.566-2.637 4.566-5.821 0-3.731-2.701-6.046-7.106-6.046h-8.198-.901c.611.45.611 1.479.611 1.479v.45 15.212.45s0 1.029-.611 1.48h2.122c1.029 0 1.833-.837 1.833-1.833v-14.215h4.887c2.476 0 3.955 1.093 3.955 3.184 0 1.961-1.544 3.216-3.923 3.216h-2.797l6.237 8.844a1.86 1.86 0 0 0 1.511.771h3.601c-.9-.45-1.672-1.479-1.672-1.479l-.032.032zm28.904-6.657h7.749c1.028 0 1.832-.836 1.832-1.833v-1.158h-9.581v-4.952h8.97c1.029 0 1.833-.837 1.833-1.834v-1.157h-13.857-.9c.61.45.61 1.479.61 1.479v.45 15.341c0 1.029.836 1.833 1.833 1.833h10.61a1.83 1.83 0 0 0 1.832-1.833v-1.158h-10.931v-5.146-.032zm-66.038-9.68v-1.287H85.04c-1.029 0-1.833.837-1.833 1.834v1.286h6.077v14.054.45s0 1.029-.611 1.48h2.154c1.029 0 1.833-.837 1.833-1.834v-14.15h4.212c1.029 0 1.833-.836 1.833-1.833zm240.779-1.287h-1.222c-1.028 0-1.832.837-1.832 1.834v15.34.45s0 1.029-.611 1.48h2.122c1.029 0 1.833-.837 1.833-1.834v-15.79s0-1.029.61-1.48h-.9zm27.779 0h-1.222c-1.029 0-1.833.837-1.833 1.834v15.34.45s0 1.029-.611 1.48h2.122c1.029 0 1.833-.837 1.833-1.834v-15.79s0-1.029.611-1.48h-.9zm-61.923-.321c-5.884 0-10.031 4.502-10.031 9.905s4.083 9.873 9.966 9.873 10.032-4.502 10.032-9.905-4.084-9.873-9.967-9.873zm0 16.691c-3.794 0-6.495-3.087-6.495-6.818s2.637-6.786 6.43-6.786 6.495 3.088 6.495 6.818-2.636 6.786-6.43 6.786zm90.762-.257v-14.279c0-1.03-.836-1.834-1.832-1.834h-1.222-.9c.611.451.611 1.48.611 1.48v.45 15.34c0 .772.45 1.415 1.125 1.705.225.096.45.129.707.129h7.684c1.029 0 1.833-.837 1.833-1.834v-1.157h-8.006zm-76.712-16.113h-.9c.61.451.61 1.48.61 1.48v.45 15.34c0 1.03.836 1.834 1.833 1.834h1.511v-8.137h7.17a1.83 1.83 0 0 0 1.832-1.833v-1.158h-9.002v-4.953h8.392c1.028 0 1.832-.836 1.832-1.833v-1.158h-13.278v-.032zm70.218 17.624l-7.266-16.659c-.29-.675-.965-1.093-1.672-1.093h-1.479-.9c.257.321.064.9-.065 1.222l-7.234 16.562s-.482 1.03-1.221 1.448h2.797c.739 0 1.414-.451 1.704-1.126l5.98-14.118 3.343 7.911c-4.308 0-5.272 3.57-5.272 3.57 2.636-1.512 5.819-1.672 7.909 2.605.289.675.964 1.125 1.704 1.125h2.926c-.772-.45-1.222-1.479-1.222-1.479l-.032.032zm-30.962-3.763s-2.25 2.509-5.337 2.509c-3.89 0-6.494-2.894-6.494-6.85 0-3.699 2.668-6.786 6.205-6.786s5.594 2.316 5.594 2.316l.836-1.03a1.84 1.84 0 0 0-.45-2.765c-1.511-.869-3.472-1.641-5.852-1.641-5.755 0-9.838 4.535-9.838 9.906s3.923 9.873 9.903 9.873c2.765 0 4.758-1.029 6.012-1.962.9-.675 1.029-1.961.257-2.766l-.804-.868-.032.064zm-123.91-12.317s0-1.029.611-1.479h-4.019c-1.061 0-1.929.868-1.929 1.929v8.78c0 1.351-.322 2.316-.965 2.959s-1.479.965-2.54.965-1.929-.322-2.539-.965c-.643-.675-.965-1.705-.965-3.055v-8.619c0-1.062-.868-1.93-1.929-1.93h-4.019c.579.45.611 1.447.611 1.479v9.198c0 1.48.193 2.766.611 3.892.418 1.093.996 1.994 1.768 2.701s1.672 1.222 2.765 1.576 2.315.515 3.665.515 2.572-.161 3.666-.515 2.025-.868 2.797-1.576a7.38 7.38 0 0 0 1.8-2.733c.45-1.126.643-2.445.643-3.988v-9.037l-.032-.097zm39.128 15.115l-2.669-4.47s3.376-2.155 3.376-5.596v-.064c0-1.865-.546-3.345-1.672-4.438-.643-.643-1.446-1.158-2.475-1.512s-2.251-.546-3.73-.546h-9.581c.579.45.611 1.447.611 1.479v16.048s0 1.061-.611 1.479h6.463c-.611-.45-.611-1.479-.611-1.479V542.48h2.025c2.347 0 4.276.933 4.276 3.313s-2.765 3.795-4.147 3.859l3.665 6.239c.386.643 1.061 1.029 1.833 1.029h5.465s-1.029-.611-2.25-2.412l.032.032z"/><path d="M255.569 555.441l-6.913-16.337a1.93 1.93 0 0 0-1.768-1.19h-4.565c.418.546 0 1.479 0 1.479l-6.784 16.048v.032c-.097.225-.482 1.061-1.158 1.447h4.759a1.92 1.92 0 0 0 1.8-1.222l.868-2.187 3.665-9.616 2.219 5.725h-.547c-1.768 0-3.343 1.093-3.954 2.734l-.515 1.382s1.093-.482 3.826-.482c2.379 0 3.537 2.412 3.537 2.412a1.92 1.92 0 0 0 1.8 1.222h4.855c-.771-.45-1.157-1.479-1.157-1.479l.032.032zm-40.928 11.192c19.451 10.677 48.837 7.107 65.459-7.494.579-.45 1.286-1.157 1.833-1.672.9-.836 1.736-1.737 2.604-2.669.547-.611 1.093-1.255 1.64-1.898-.643 1.062-1.254 2.187-2.026 3.184-.45.643-.996 1.447-1.511 2.026-.482.579-1.125 1.383-1.64 1.93-14.468 15.437-39.674 19.489-58.836 11.224-2.669-1.222-5.209-2.734-7.491-4.599l-.032-.032zm67.227-31.936c-4.758-5.499-11.638-8.747-18.551-10.741-19.065-5.307-42.182-.611-54.56 15.694a35.05 35.05 0 0 0-2.958 4.503c1.125-1.351 2.315-2.734 3.569-3.988 13.6-14.022 34.787-18.074 53.435-14.054 6.848 1.511 13.664 4.052 19.098 8.586h-.033z"/></g></g><defs><clipPath id="A"><path fill="#fff" d="M0 0h475v575.445H0z"/></clipPath></defs></svg>
